<?xml version="1.0" encoding="utf-8"?>
<!DOCTYPE svg PUBLIC "-//W3C//DTD SVG 1.1//EN" "http://www.w3.org/Graphics/SVG/1.1/DTD/svg11.dtd">
<svg version="1.1" id="Livello_1" xmlns="http://www.w3.org/2000/svg" xmlns:xlink="http://www.w3.org/1999/xlink" x="0px" y="0px"
	 width="604.087px" height="156.356px" viewBox="0 0 604.087 156.356" enable-background="new 0 0 604.087 156.356"
	 xml:space="preserve">
<g fill="#fff">
	<polygon points="247.444,48.627 180.838,72.87 180.838,89.284 204.863,80.539 204.863,148.336 223.417,141.583 223.417,73.786
		247.444,65.041 	"/>
	<path d="M273.327,39.207l-36.396,97.458l20.458-7.446l7.018-20.396l32.708-11.905l7.255,15.201l20.933-7.619l-36.633-70.877
		L273.327,39.207z M270.234,91l10.228-29.89l10.348,22.401L270.234,91z"/>
	<path d="M362.904,6.603l-31.281,11.385v84.211l12.816-4.665l0.806,0.002l0.001-0.295l4.932-1.795V62.618l13.558-4.935
		c17.722-6.45,31.162-17.409,31.162-37.153C394.898,0.547,380.388,0.239,362.904,6.603z"/>
	<path d="M20.081,110.94C8.924,115.001,0,125.687,0,137.214s8.924,15.717,20.081,11.656c5.801-2.112,11.677-6.854,15.247-12.689
		l-7.809-2.884c-1.859,3.205-4.314,5.958-7.958,7.284c-4.314,1.57-7.512-0.018-8.404-3.933l25.882-9.42v-3.495
		C37.038,112.206,30.493,107.15,20.081,110.94z M11.156,129.063c0.297-3.604,2.975-7.925,7.883-9.711
		c4.016-1.461,6.917,0.607,6.842,4.352L11.156,129.063z"/>
	<path d="M54.419,105.135l-0.149,0.055v-5.801l-11.157,4.061v36.145l11.157-4.061v-15.098c0-7.214,1.041-12.501,9.52-15.587
		c1.636-0.596,3.198-0.867,4.76-0.99V93.67c-1.042,0.082-2.455,0.521-3.719,0.982C59.923,96.438,56.799,99.881,54.419,105.135z"/>
	<path d="M91.167,85.066c-11.156,4.061-20.081,14.746-20.081,26.273s8.924,15.717,20.081,11.656
		c5.801-2.111,11.677-6.854,15.247-12.689l-7.81-2.884c-1.859,3.205-4.314,5.958-7.958,7.284c-4.314,1.57-7.512-0.018-8.404-3.933
		l25.882-9.42v-3.495C108.125,86.332,101.58,81.276,91.167,85.066z M82.243,103.188c0.297-3.603,2.975-7.924,7.883-9.711
		c4.016-1.462,6.917,0.606,6.842,4.352L82.243,103.188z"/>
	<path d="M140.656,71.813l-0.149,0.055c-2.528-2.575-6.842-2.27-11.453-0.591c-10.263,3.736-16.511,15.232-16.511,25.272
		c0,10.933,7.065,16.096,17.775,12.197c5.057-1.841,9.371-6.46,11.082-9.686l0.148-0.054v4.76l10.263-3.735V43.806l-11.156,4.06
		V71.813z M132.624,98.09c-5.578,2.03-8.924-0.471-8.924-5.899s3.347-10.365,8.924-12.396c5.578-2.03,8.925,0.47,8.925,5.899
		S138.202,96.06,132.624,98.09z"/>
	<polygon points="159.927,97.077 171.083,93.017 171.083,56.872 159.927,60.933 	"/>
	<path d="M165.505,41.054c-3.57,1.299-6.471,5.256-6.471,8.825c0,3.57,2.901,5.415,6.471,4.115c3.569-1.299,6.47-5.255,6.47-8.826
		C171.975,41.599,169.074,39.755,165.505,41.054z"/>
	<path d="M428.706,59.549l-31.281,11.385v84.211l18.554-6.753v-32.828l13.559-4.935C447.26,104.179,460.7,93.22,460.7,73.476
		C460.7,53.494,446.19,53.186,428.706,59.549z"/>
	<path d="M489.354,37.475l-36.395,97.458l20.458-7.446l7.018-20.396l32.708-11.905l7.255,15.201l20.934-7.619l-36.634-70.877
		L489.354,37.475z M486.262,89.27l10.228-29.89l10.348,22.401L486.262,89.27z"/>
	<path d="M565.313,33.497c0-6.304,7.256-11.323,12.489-13.228c4.52-1.645,10.467-2.025,13.439,0.699l12.727-18.549
		c-7.136-3.707-16.294-2.871-25.81,0.592c-16.532,6.018-32.112,21.084-32.112,39.045c0,28.07,39.486,5.372,39.486,20.834
		c0,5.946-6.779,11.27-12.845,13.478c-6.186,2.251-12.369,1.528-16.176-2.082L543.31,93.602c7.969,4.475,17.483,4.223,28.308,0.283
		c17.365-6.32,32.47-20.738,32.47-39.531C604.087,24.856,565.313,48.841,565.313,33.497z"/>
	<path d="M345.4,108.747l-9.992,0.39c0.172,4.432,0.494,8.314,0.982,11.87l9.907-1.36C345.854,116.416,345.56,112.851,345.4,108.747
		z"/>
	<path d="M355.617,153.222c3.765,1.782,8.084,2.837,12.84,3.135l0.625-9.98c-3.483-0.218-6.574-0.956-9.186-2.192L355.617,153.222z"
		/>
	<path d="M379.355,145.765l1.581,9.874c3.667-0.587,7.621-1.51,11.752-2.742l-2.859-9.583
		C386.115,144.422,382.591,145.246,379.355,145.765z"/>
	<path d="M339.074,133.036c1.491,4.495,3.492,8.395,5.95,11.594l7.93-6.093c-1.774-2.309-3.25-5.219-4.387-8.648L339.074,133.036z"
		/>
</g>
</svg>
