<?xml version="1.0" encoding="utf-8"?>
<!DOCTYPE svg PUBLIC "-//W3C//DTD SVG 1.1//EN" "http://www.w3.org/Graphics/SVG/1.1/DTD/svg11.dtd">
<svg version="1.1" id="Livello_1" xmlns="http://www.w3.org/2000/svg" xmlns:xlink="http://www.w3.org/1999/xlink" x="0px" y="0px"
	 width="129.077px" height="153.427px" viewBox="331.623 2.93 129.077 153.427"
	 enable-background="new 331.623 2.93 129.077 153.427" xml:space="preserve">
<style>
	@media (prefers-color-scheme: dark) {
		g {
			fill: #fff;
		}
	}
</style>
<g>
	<path d="M362.904,6.603l-31.281,11.385v84.211l12.816-4.665l0.806,0.002l0.001-0.295l4.932-1.795V62.618l13.558-4.935
		c17.722-6.45,31.162-17.409,31.162-37.153C394.898,0.547,380.388,0.239,362.904,6.603z"/>
	<path d="M428.706,59.549l-31.281,11.385v84.211l18.554-6.753v-32.828l13.559-4.935c17.722-6.45,31.162-17.409,31.162-37.153
		C460.7,53.494,446.19,53.186,428.706,59.549z"/>
	<path d="M345.4,108.747l-9.992,0.39c0.172,4.432,0.494,8.314,0.982,11.87l9.907-1.36C345.854,116.416,345.56,112.851,345.4,108.747
		z"/>
	<path d="M355.617,153.222c3.765,1.782,8.084,2.837,12.84,3.135l0.625-9.98c-3.483-0.218-6.574-0.956-9.186-2.192L355.617,153.222z"
		/>
	<path d="M379.355,145.765l1.581,9.874c3.667-0.587,7.621-1.51,11.752-2.742l-2.859-9.583
		C386.115,144.422,382.591,145.246,379.355,145.765z"/>
	<path d="M339.074,133.036c1.491,4.495,3.492,8.395,5.95,11.594l7.93-6.093c-1.774-2.309-3.25-5.219-4.387-8.648L339.074,133.036z"
		/>
</g>
</svg>
